# xmcd
#
# Track frame offsets:
#	150
#	14980
#	24747
#	34985
#	47775
#	61230
#	76980
#	93400
#	103467
#	118227
#	132347
#	144657
#
# Disc length: 2091
#
# Revision: 2
# Processed by: cddbd v1.5.1PL0 Copyright (c) Steve Scherf et al.
# Submitted via: uFREEDB 1.6.0
# Normalized: r0:TDELIM( - ),TSWAP
#
DISCID=b408290c
DTITLE=Various Artist - Welcome to Branson, USA
DYEAR=1993
DGENRE=Country
TTITLE0=Christy Lane - One Day at a Time
TTITLE1=Mel Tillis - I Ain't Never
TTITLE2=Johnny Cash - The Ways of a Woman in Love
TTITLE3=Box Car Willie - Reflections of an old Man
TTITLE4=Moe Bandy - Bandy the Rodeo Clown
TTITLE5=Mickey Gilley - Lonely Nights
TTITLE6=Mickey Gilley - Stand By Me
TTITLE7=Johnny Cash - Guess Things Happen that Wat
TTITLE8=Glenn Campbell - Rhinestone Cowboy
TTITLE9=Box Car Willie - Walkin' Holes in my Shoes
TTITLE10=Roy Clark - The Tips of My Fingers
TTITLE11=Johnny Cash - I Walk the Line
EXTD=info from RRRoyer
EXTT0=
EXTT1=
EXTT2=
EXTT3=
EXTT4=
EXTT5=
EXTT6=
EXTT7=
EXTT8=
EXTT9=
EXTT10=
EXTT11=
PLAYORDER=
